# xmcd
#
# Track frame offsets:
#	150
#	13895
#	26196
#	38653
#	51508
#	60810
#	71708
#	81552
#	97139
#	108405
#	119352
#	129752
#	141166
#	152188
#	162709
#	171132
#	182600
#	193429
#	206149
#	216800
#
# Disc length: 3041 seconds
#
# Revision: 0
# Processed by: cddbd v1.5.2PL0 Copyright (c) Steve Scherf et al.
# Submitted via: EasyCDDAExtractor 11.1.0.1
#
DISCID=320bdf14
DTITLE=Willie Nelson - Ultimate Collection Cd1
DYEAR=2000
DGENRE=Country
TTITLE0=Funny How Times Slips Away
TTITLE1=Country Willie
TTITLE2=Mr. Record Man
TTITLE3=Crazy
TTITLE4=Columbus Stockade Blues
TTITLE5=I'll Walk Alone
TTITLE6=Blue Must Be The Color Of The Blues
TTITLE7=Still Water Runs The Deepest
TTITLE8=Night Life
TTITLE9=One Step Byond
TTITLE10=The Part Where I Cry
TTITLE11=Carkness On The Face Of The Earth
TTITLE12=Half A Man
TTITLE13=Let Me Talk To You
TTITLE14=Roly Poly
TTITLE15=Seasons Of My Heart
TTITLE16=Second Fiddle
TTITLE17=Wake Me When It's Over
TTITLE18=Where My House Lives
TTITLE19=You Took My Happy Away
EXTD=
EXTT0=
EXTT1=
EXTT2=
EXTT3=
EXTT4=
EXTT5=
EXTT6=
EXTT7=
EXTT8=
EXTT9=
EXTT10=
EXTT11=
EXTT12=
EXTT13=
EXTT14=
EXTT15=
EXTT16=
EXTT17=
EXTT18=
EXTT19=
PLAYORDER=
